<svg id="Component_1_1" data-name="Component 1 – 1" xmlns="http://www.w3.org/2000/svg" width="34.9" height="34.899" viewBox="0 0 34.9 34.899">
  <path id="Path_1" data-name="Path 1" d="M17.45,34.909A17.449,17.449,0,1,1,29.789,29.8a17.4,17.4,0,0,1-12.339,5.11Zm-11.4-6.046a16.127,16.127,0,1,0-4.723-11.4,16.078,16.078,0,0,0,4.723,11.4Z" transform="translate(0 -0.01)" fill="#fff"/>
  <path id="Path_2" data-name="Path 2" d="M253.306,163.994h4.086V153.76h2.852l.3-3.426h-3.155v-1.951c0-.808.162-1.127.944-1.127h2.211V143.7h-2.83c-3.041,0-4.412,1.339-4.412,3.9v2.732H251.18v3.47h2.126V164Z" transform="translate(-238.414 -136.397)" fill="#fff"/>
</svg>
