<svg id="Component_3_1" data-name="Component 3 – 1" xmlns="http://www.w3.org/2000/svg" width="34.899" height="34.899" viewBox="0 0 34.899 34.899">
  <path id="Path_7" data-name="Path 7" d="M1915,34.909a17.449,17.449,0,1,1,12.339-5.11A17.393,17.393,0,0,1,1915,34.909Zm-11.4-6.047a16.127,16.127,0,1,0-4.722-11.4,16.076,16.076,0,0,0,4.722,11.4Z" transform="translate(-1897.55 -0.01)" fill="#fff"/>
  <path id="Path_8" data-name="Path 8" d="M2091.356,158.7a.4.4,0,0,0,.574-.286c.052-.2.177-.708.232-.919a.552.552,0,0,0-.165-.639,3.3,3.3,0,0,1-.755-2.246,5.424,5.424,0,0,1,5.639-5.486c3.075,0,4.765,1.879,4.765,4.39,0,3.3-1.46,6.089-3.631,6.089a1.773,1.773,0,0,1-1.808-2.206,24.425,24.425,0,0,0,1.011-4.065,1.534,1.534,0,0,0-1.544-1.719c-1.225,0-2.209,1.268-2.209,2.965a4.411,4.411,0,0,0,.365,1.812l-1.473,6.24a12.856,12.856,0,0,0-.035,4.353.153.153,0,0,0,.273.066,12.215,12.215,0,0,0,2.067-3.748c.142-.51.806-3.148.806-3.148a3.284,3.284,0,0,0,2.8,1.427c3.682,0,6.179-3.356,6.179-7.849,0-3.4-2.877-6.56-7.251-6.56-5.441,0-8.184,3.9-8.184,7.154,0,1.97.746,3.723,2.344,4.374Z" transform="translate(-2079.279 -139.69)" fill="#fff"/>
</svg>
