<svg id="Component_2_1" data-name="Component 2 – 1" xmlns="http://www.w3.org/2000/svg" width="34.9" height="34.899" viewBox="0 0 34.9 34.899">
  <path id="Path_3" data-name="Path 3" d="M984.83,34.9a17.451,17.451,0,1,1,12.339-5.111A17.4,17.4,0,0,1,984.83,34.9Zm-11.4-6.047a16.128,16.128,0,1,0-4.723-11.4,16.076,16.076,0,0,0,4.723,11.4Z" transform="translate(-967.38)" fill="#fff"/>
  <path id="Path_4" data-name="Path 4" d="M1138.814,162.22c-2.5,0-2.813.011-3.795.056a6.77,6.77,0,0,0-2.235.428,4.709,4.709,0,0,0-2.691,2.692,6.751,6.751,0,0,0-.428,2.235c-.045.982-.055,1.3-.055,3.8s.011,2.813.055,3.8a6.751,6.751,0,0,0,.428,2.235,4.708,4.708,0,0,0,2.691,2.693,6.794,6.794,0,0,0,2.235.428c.982.044,1.295.055,3.795.055s2.813-.011,3.8-.055a6.8,6.8,0,0,0,2.235-.428,4.713,4.713,0,0,0,2.692-2.693,6.768,6.768,0,0,0,.428-2.235c.045-.982.056-1.3.056-3.8s-.011-2.813-.056-3.8a6.773,6.773,0,0,0-.428-2.235,4.714,4.714,0,0,0-2.692-2.692,6.763,6.763,0,0,0-2.235-.428C1141.627,162.231,1141.314,162.22,1138.814,162.22Zm0,1.658c2.458,0,2.749.01,3.72.054a5.089,5.089,0,0,1,1.709.318A3.043,3.043,0,0,1,1145.99,166a5.114,5.114,0,0,1,.318,1.71c.044.97.054,1.261.054,3.719s-.01,2.749-.054,3.719a5.114,5.114,0,0,1-.318,1.71,3.043,3.043,0,0,1-1.747,1.747,5.082,5.082,0,0,1-1.709.317c-.971.044-1.261.054-3.72.054s-2.749-.01-3.719-.054a5.1,5.1,0,0,1-1.71-.317,3.047,3.047,0,0,1-1.747-1.747,5.083,5.083,0,0,1-.317-1.71c-.044-.971-.054-1.261-.054-3.719s.01-2.749.054-3.719a5.1,5.1,0,0,1,.317-1.71,3.048,3.048,0,0,1,1.747-1.747,5.115,5.115,0,0,1,1.71-.318C1136.065,163.888,1136.356,163.878,1138.814,163.878Z" transform="translate(-1121.365 -153.975)" fill="#fff"/>
  <path id="Path_5" data-name="Path 5" d="M1222.437,258.144a3.068,3.068,0,1,1,3.068-3.068A3.068,3.068,0,0,1,1222.437,258.144Zm0-7.794a4.727,4.727,0,1,0,4.726,4.727A4.727,4.727,0,0,0,1222.437,250.35Z" transform="translate(-1204.987 -237.626)" fill="#fff"/>
  <path id="Path_6" data-name="Path 6" d="M1387.869,226.034a1.1,1.1,0,1,1-1.1-1.1A1.1,1.1,0,0,1,1387.869,226.034Z" transform="translate(-1364.401 -213.498)" fill="#fff"/>
</svg>
